<svg xmlns="http://www.w3.org/2000/svg" version="1.1" xmlns:xlink="http://www.w3.org/1999/xlink" xmlns:svgjs="http://svgjs.dev/svgjs" width="1000" height="1000" viewBox="0 0 1000 1000"><rect width="1000" height="1000" fill="#ca3433"></rect><g transform="matrix(0.7,0,0,0.7,149.57575757575756,457.18843639624646)"><svg viewBox="0 0 396 49" data-background-color="#ca3433" preserveAspectRatio="xMidYMid meet" height="123" width="1000" xmlns="http://www.w3.org/2000/svg" xmlns:xlink="http://www.w3.org/1999/xlink"><g id="tight-bounds" transform="matrix(1,0,0,1,0.2400000000000091,-0.13569551005898006)"><svg viewBox="0 0 395.52 49.27139102011796" height="49.27139102011796" width="395.52"><g><svg viewBox="0 0 651.189504655931 81.12108796546143" height="49.27139102011796" width="395.52"><g transform="matrix(1,0,0,1,255.66950465593106,11.211380464112256)"><svg viewBox="0 0 395.52 58.698327037236915" height="58.698327037236915" width="395.52"><g id="textblocktransform"><svg viewBox="0 0 395.52 58.698327037236915" height="58.698327037236915" width="395.52" id="textblock"><g><svg viewBox="0 0 395.52 58.698327037236915" height="58.698327037236915" width="395.52"><g transform="matrix(1,0,0,1,0,0)"><svg width="395.52" viewBox="1.9000000953674316 -26.899999618530273 185.29000854492188 27.5" height="58.698327037236915" data-palette-color="#f7e1e1"><path d="M14.45 0.6Q8.15 0.6 5.03-2.75 1.9-6.1 1.9-13.15L1.9-13.15Q1.9-20.15 5.03-23.53 8.15-26.9 14.45-26.9L14.45-26.9Q19.7-26.9 22.83-24.23 25.95-21.55 25.95-16.4L25.95-16.4 19.05-16.4Q19.05-18.8 17.8-20.1 16.55-21.4 14.3-21.4L14.3-21.4Q11.5-21.4 10.18-19.43 8.85-17.45 8.85-13.55L8.85-13.55 8.85-12.75Q8.85-8.85 10.23-6.88 11.6-4.9 14.65-4.9L14.65-4.9Q16.8-4.9 18.07-6.23 19.35-7.55 19.35-9.9L19.35-9.9 25.95-9.9Q25.95-4.75 22.85-2.08 19.75 0.6 14.45 0.6L14.45 0.6ZM37.4 0.6Q34.35 0.6 31.8-1 29.25-2.6 29.25-6.8L29.25-6.8Q29.25-11.85 33.4-13.98 37.55-16.1 45.15-16.1L45.15-16.1 45.15-17.95Q45.15-19.7 44.37-20.65 43.6-21.6 41.45-21.6L41.45-21.6Q39.15-21.6 38.17-20.9 37.2-20.2 37.2-19.25L37.2-19.25 37.2-18.5 30.6-18.5Q30.55-18.8 30.55-19.6L30.55-19.6Q30.55-22.9 33.47-24.9 36.4-26.9 41.25-26.9L41.25-26.9Q46.65-26.9 49.32-24.7 52-22.5 52-18.35L52-18.35 52-6.75Q52-5.85 52.5-5.43 53-5 53.75-5L53.75-5 55.15-5 55.15-0.2Q53.55 0.6 51.2 0.6L51.2 0.6Q49.15 0.6 47.77-0.3 46.4-1.2 45.9-2.85L45.9-2.85 45.6-2.85Q44.15-1.15 42.27-0.28 40.4 0.6 37.4 0.6L37.4 0.6ZM39.55-4.8Q42.45-4.8 43.8-6.43 45.15-8.05 45.15-10.75L45.15-10.75 45.15-11.55Q36.2-11.55 36.2-7.55L36.2-7.55Q36.2-6.3 37.02-5.55 37.85-4.8 39.55-4.8L39.55-4.8ZM59.14 0L59.14-26.3 65-26.3 65.55-22.05 65.89-22.05Q66.75-24.3 68.09-25.6 69.44-26.9 71.64-26.9L71.64-26.9Q73.09-26.9 74.25-26.45L74.25-26.45 74.25-20.05 72.34-20.05Q69-20.05 67.5-18.23 66-16.4 66-12.7L66-12.7 66 0 59.14 0ZM76.09 0L76.09-3.05 88.54-20.7 76.84-20.7 76.84-26.3 98.49-26.3 98.49-23.3 85.99-5.6 98.94-5.6 98.94 0 76.09 0ZM115.29 0.6Q108.54 0.6 105.24-2.75 101.94-6.1 101.94-13.15L101.94-13.15Q101.94-20.2 105.24-23.55 108.54-26.9 115.29-26.9L115.29-26.9Q122.04-26.9 125.37-23.55 128.69-20.2 128.69-13.15L128.69-13.15Q128.69-6.1 125.37-2.75 122.04 0.6 115.29 0.6L115.29 0.6ZM115.29-5Q118.64-5 120.14-6.93 121.64-8.85 121.64-12.75L121.64-12.75 121.64-13.55Q121.64-17.45 120.14-19.38 118.64-21.3 115.29-21.3L115.29-21.3Q111.94-21.3 110.47-19.38 108.99-17.45 108.99-13.55L108.99-13.55 108.99-12.75Q108.99-8.85 110.47-6.93 111.94-5 115.29-5L115.29-5ZM134.14 0L134.14-26.3 139.99-26.3 140.49-22.85 140.84-22.85Q144.04-26.9 149.04-26.9L149.04-26.9Q153.09-26.9 155.41-24.7 157.74-22.5 157.74-17.65L157.74-17.65 157.74 0 150.89 0 150.89-16.2Q150.89-18.65 149.74-19.75 148.59-20.85 146.34-20.85L146.34-20.85Q144.04-20.85 142.51-19.23 140.99-17.6 140.99-15.2L140.99-15.2 140.99 0 134.14 0ZM175.54 0.6Q169.19 0.6 166.06-2.75 162.94-6.1 162.94-13.15L162.94-13.15Q162.94-20.2 166.06-23.55 169.19-26.9 175.54-26.9L175.54-26.9Q181.39-26.9 184.29-23.53 187.19-20.15 187.19-13.15L187.19-13.15 187.19-11.55 169.89-11.55Q169.99-8.05 171.29-6.38 172.59-4.7 175.64-4.7L175.64-4.7Q177.79-4.7 179.11-5.9 180.44-7.1 180.44-9.3L180.44-9.3 187.19-9.3Q187.19-4.35 183.99-1.88 180.79 0.6 175.54 0.6L175.54 0.6ZM169.99-16.1L180.09-16.1Q180.09-21.55 175.54-21.55L175.54-21.55Q172.94-21.55 171.61-20.2 170.29-18.85 169.99-16.1L169.99-16.1Z" opacity="1" transform="matrix(1,0,0,1,0,0)" fill="#f7e1e1" class="undefined-text-0" data-fill-palette-color="primary" id="text-0"></path></svg></g></svg></g></svg></g></svg></g><g><svg viewBox="0 0 241.81223840228833 81.12108796546143" height="81.12108796546143" width="241.81223840228833"><g><svg version="1.0" xmlns="http://www.w3.org/2000/svg" xmlns:xlink="http://www.w3.org/1999/xlink" x="0" y="0" viewBox="0 0 99.99958801269531 33.547000885009766" enable-background="new 0 0 99.999 33.547" xml:space="preserve" width="241.81223840228833" height="81.12108796546143" class="icon-icon-0" data-fill-palette-color="accent" id="icon-0"><path d="M99.212 10.535L79.778 8.898 75.278 0H40.965l-7.417 9.819L2.454 11.456 0 24.445h7.105c0.487-4.882 4.606-8.694 9.617-8.694 5.01 0 9.129 3.812 9.616 8.694h44.283c0.487-4.882 4.606-8.694 9.616-8.694 4.988 0 9.093 3.778 9.61 8.628l8.75-1.264C98.599 23.116 101.29 13.016 99.212 10.535zM55.768 10.765H35.21l6.722-8.898h13.836V10.765zM57.635 10.765V1.866h12.988l4.501 8.898H57.635z" fill="#ff5858" data-fill-palette-color="accent"></path><path d="M16.723 17.285c-4.491 0-8.132 3.64-8.132 8.131s3.641 8.131 8.132 8.131c4.49 0 8.131-3.64 8.131-8.131S21.213 17.285 16.723 17.285zM16.723 30.787c-2.966 0-5.37-2.404-5.37-5.37s2.404-5.37 5.37-5.37c2.965 0 5.369 2.404 5.369 5.37S19.688 30.787 16.723 30.787z" fill="#ff5858" data-fill-palette-color="accent"></path><path d="M80.238 17.285c-4.49 0-8.131 3.64-8.131 8.131s3.641 8.131 8.131 8.131c4.491 0 8.132-3.64 8.132-8.131S84.729 17.285 80.238 17.285zM80.238 30.787c-2.965 0-5.369-2.404-5.369-5.37s2.404-5.37 5.369-5.37c2.966 0 5.37 2.404 5.37 5.37S83.204 30.787 80.238 30.787z" fill="#ff5858" data-fill-palette-color="accent"></path></svg></g></svg></g></svg></g><defs></defs></svg><rect width="395.52" height="49.27139102011796" fill="none" stroke="none" visibility="hidden"></rect></g></svg></g></svg>